<svg width="18" height="18" viewBox="0 0 18 18" fill="none" xmlns="http://www.w3.org/2000/svg">
<path d="M6.25439 8.05252H3.33963C2.40021 8.05252 1.63635 7.27721 1.63635 6.32371V3.36528C1.63635 2.41178 2.40021 1.63647 3.33963 1.63647H6.25439C7.19381 1.63647 7.95767 2.41178 7.95767 3.36528V6.32371C7.95767 7.27721 7.19381 8.05252 6.25439 8.05252ZM3.33963 2.56165C2.90248 2.56165 2.54787 2.92275 2.54787 3.36528V6.32371C2.54787 6.76742 2.90364 7.12734 3.33963 7.12734H6.25439C6.69155 7.12734 7.04616 6.76624 7.04616 6.32371V3.36528C7.04616 2.92157 6.69039 2.56165 6.25439 2.56165H3.33963Z" fill="#030303" stroke="#030303" stroke-width="0.5"/>
<path d="M14.6603 8.05252H11.7456C10.8062 8.05252 10.0423 7.27721 10.0423 6.32371V3.36528C10.0411 2.41178 10.8062 1.63647 11.7456 1.63647H14.6603C15.5998 1.63647 16.3636 2.41178 16.3636 3.36528V6.32371C16.3636 7.27721 15.5998 8.05252 14.6603 8.05252ZM11.7456 2.56165C11.3084 2.56165 10.9538 2.92275 10.9538 3.36528V6.32371C10.9538 6.76742 11.3096 7.12734 11.7456 7.12734H14.6603C15.0975 7.12734 15.4521 6.76624 15.4521 6.32371V3.36528C15.4521 2.92157 15.0963 2.56165 14.6603 2.56165H11.7456Z" fill="#030303" stroke="#030303" stroke-width="0.5"/>
<path d="M6.25439 16.3638H3.33963C2.40021 16.3638 1.63635 15.5873 1.63635 14.6338V11.6753C1.63635 10.7218 2.40021 9.94653 3.33963 9.94653H6.25439C7.19381 9.94653 7.95767 10.7218 7.95767 11.6753V14.6338C7.95767 15.5873 7.19381 16.3638 6.25439 16.3638ZM3.33963 10.8717C2.90248 10.8717 2.54787 11.2328 2.54787 11.6753V14.6338C2.54787 15.0775 2.90364 15.4374 3.33963 15.4374H6.25439C6.69155 15.4374 7.04616 15.0763 7.04616 14.6338V11.6753C7.04616 11.2316 6.69039 10.8717 6.25439 10.8717H3.33963Z" fill="#030303" stroke="#030303" stroke-width="0.5"/>
<path d="M14.6603 16.3638H11.7456C10.8062 16.3638 10.0423 15.5884 10.0423 14.635V11.6753C10.0423 10.7218 10.8062 9.94653 11.7456 9.94653H14.6603C15.5998 9.94653 16.3636 10.7218 16.3636 11.6753V14.6338C16.3636 15.5873 15.5998 16.3638 14.6603 16.3638ZM11.7456 10.8717C11.3084 10.8717 10.9538 11.2328 10.9538 11.6753V14.6338C10.9538 15.0775 11.3096 15.4374 11.7456 15.4374H14.6603C15.0975 15.4374 15.4521 15.0763 15.4521 14.6338V11.6753C15.4521 11.2316 15.0963 10.8717 14.6603 10.8717H11.7456Z" fill="#030303" stroke="#030303" stroke-width="0.5"/>
</svg>
