<svg width="64" height="64" viewBox="0 0 64 64" fill="none" xmlns="http://www.w3.org/2000/svg">
<path d="M32.0493 18.0371C23.9777 18.0371 17.2018 22.0862 15.2644 27.5678H10.9681C10.461 27.5665 9.95851 27.6654 9.48967 27.8588C9.02083 28.0523 8.59485 28.3365 8.23622 28.6951C7.87759 29.0538 7.59337 29.4798 7.39991 29.9486C7.20644 30.4174 7.10755 30.9199 7.10891 31.4271V33.9972C7.10726 34.5049 7.20588 35.008 7.39912 35.4776C7.59235 35.9471 7.8764 36.3739 8.23495 36.7334C8.59351 37.0929 9.01952 37.3781 9.48855 37.5726C9.95758 37.7671 10.4604 37.867 10.9681 37.8667H13.0262C13.0065 37.6618 12.9969 37.456 12.9975 37.2501C12.9973 36.4518 13.1544 35.6612 13.4598 34.9235C13.7652 34.1859 14.213 33.5157 14.7776 32.9511C15.3421 32.3866 16.0123 31.9388 16.75 31.6334C17.4876 31.3279 18.2782 31.1708 19.0766 31.171C19.8749 31.1709 20.6654 31.3281 21.403 31.6336C22.1405 31.9391 22.8107 32.3868 23.3751 32.9514C23.9396 33.5159 24.3873 34.1861 24.6927 34.9237C24.9981 35.6613 25.1552 36.4518 25.155 37.2501C25.155 37.4562 25.1476 37.6651 25.127 37.8667H38.241C38.2216 37.6618 38.2123 37.456 38.2131 37.2501C38.2129 36.4518 38.37 35.6613 38.6754 34.9237C38.9808 34.1861 39.4285 33.5159 39.9929 32.9514C40.5574 32.3868 41.2275 31.9391 41.9651 31.6336C42.7026 31.3281 43.4931 31.1709 44.2915 31.171C45.0898 31.1709 45.8803 31.3281 46.6178 31.6336C47.3554 31.9391 48.0255 32.3868 48.59 32.9514C49.1545 33.5159 49.6022 34.1861 49.9076 34.9237C50.213 35.6613 50.37 36.4518 50.3698 37.2501C50.3698 37.4562 50.3625 37.6651 50.3419 37.8667H53.1394C53.6471 37.867 54.1499 37.7671 54.619 37.5726C55.088 37.3781 55.514 37.0929 55.8726 36.7334C56.2311 36.3739 56.5152 35.9471 56.7084 35.4776C56.9016 35.008 57.0003 34.5049 56.9986 33.9972V31.4271C57.0001 30.9199 56.9012 30.4174 56.7078 29.9485C56.5144 29.4796 56.2302 29.0536 55.8715 28.6949C55.5129 28.3363 55.0868 28.0521 54.618 27.8586C54.1491 27.6652 53.6466 27.5664 53.1394 27.5678H48.8438C46.9043 22.0862 40.121 18.0371 32.0493 18.0371Z" fill="#00B150"/>
<path fill-rule="evenodd" clip-rule="evenodd" d="M23.4847 37.2485C23.4847 38.418 23.0202 39.5396 22.1932 40.3665C21.3662 41.1935 20.2446 41.6581 19.0751 41.6581C17.9056 41.6581 16.784 41.1935 15.9571 40.3665C15.1301 39.5396 14.6655 38.418 14.6655 37.2485C14.6655 36.079 15.1301 34.9574 15.9571 34.1304C16.784 33.3034 17.9056 32.8389 19.0751 32.8389C20.2446 32.8389 21.3662 33.3034 22.1932 34.1304C23.0202 34.9574 23.4847 36.079 23.4847 37.2485ZM48.6974 37.2485C48.705 37.8323 48.5965 38.4118 48.3783 38.9534C48.1601 39.4949 47.8365 39.9878 47.4263 40.4033C47.0161 40.8188 46.5275 41.1487 45.9888 41.3739C45.4501 41.5991 44.872 41.715 44.2882 41.715C43.7043 41.715 43.1263 41.5991 42.5875 41.3739C42.0488 41.1487 41.5602 40.8188 41.15 40.4033C40.7399 39.9878 40.4163 39.4949 40.1981 38.9534C39.9799 38.4118 39.8714 37.8323 39.8789 37.2485C39.8939 36.0889 40.3651 34.982 41.1903 34.1673C42.0156 33.3526 43.1285 32.8958 44.2882 32.8958C45.4478 32.8958 46.5608 33.3526 47.386 34.1673C48.2113 34.982 48.6824 36.0889 48.6974 37.2485Z" fill="#5D5E63"/>
<path opacity="0.413" d="M32.0494 18.0332C23.9776 18.0332 17.2015 22.082 15.2642 27.5638H10.9681C10.4608 27.5624 9.95829 27.6613 9.48939 27.8548C9.02049 28.0483 8.59449 28.3326 8.23583 28.6913C7.87717 29.0501 7.59293 29.4761 7.39949 29.9451C7.20605 30.414 7.10722 30.9165 7.10866 31.4238V34.0032C7.1073 34.5105 7.2062 35.0129 7.39967 35.4818C7.59315 35.9507 7.87736 36.3767 8.23601 36.7353C8.59467 37.094 9.02068 37.3782 9.48954 37.5717C9.9584 37.7651 10.4609 37.8641 10.9681 37.8627H13.0262C13.0066 37.6578 12.9971 37.4521 12.9977 37.2464C12.9977 33.8882 15.7185 31.1674 19.0763 31.1674C22.4342 31.1674 25.155 33.8882 25.155 37.2464C25.155 37.4527 25.1468 37.6612 25.1265 37.8624H26.9093L36.4875 18.4505C35.071 18.1758 33.5834 18.0332 32.0494 18.0332Z" fill="url(#paint0_linear_1479_4780)"/>
<path opacity="0.466" d="M32.0493 18.0332C26.8814 18.0332 22.2426 19.6962 19.0669 22.329L36.3075 37.8627H38.2418C38.2223 37.6578 38.2129 37.4521 38.2136 37.2464C38.2136 33.8882 40.9345 31.1674 44.292 31.1674C47.6501 31.1674 50.3709 33.8882 50.3709 37.2464C50.3709 37.4527 50.3627 37.6612 50.3424 37.8624H53.14C53.6472 37.8638 54.1497 37.7649 54.6186 37.5714C55.0875 37.3779 55.5134 37.0937 55.8721 36.735C56.2307 36.3764 56.515 35.9504 56.7085 35.4815C56.9019 35.0126 57.0008 34.5102 56.9995 34.0029V31.4235C57.0009 30.9163 56.902 30.4138 56.7085 29.9449C56.5151 29.476 56.2309 29.0499 55.8722 28.6912C55.5136 28.3325 55.0876 28.0483 54.6187 27.8548C54.1498 27.6613 53.6473 27.5624 53.14 27.5638H48.8439C46.9045 22.082 40.1209 18.0332 32.0493 18.0332Z" fill="url(#paint1_linear_1479_4780)"/>
<path d="M30.2281 21.125C25.1887 21.6246 21.0263 24.1653 19.3325 27.5735H30.2281V21.125ZM33.8703 21.125V27.5735H44.7667C43.0699 24.1638 38.9142 21.6224 33.8696 21.125H33.8703Z" fill="#F8C82E"/>
<path fill-rule="evenodd" clip-rule="evenodd" d="M52.0686 27.5635C51.9951 27.8163 51.9568 28.078 51.9546 28.3412C51.9541 28.7187 52.0281 29.0925 52.1723 29.4413C52.3165 29.7902 52.5282 30.1071 52.7951 30.374C53.062 30.6409 53.3789 30.8525 53.7277 30.9968C54.0766 31.141 54.4504 31.215 54.8279 31.2145H56.9904C56.9385 30.2285 56.5102 29.3 55.7937 28.6207C55.0772 27.9413 54.1273 27.5629 53.14 27.5635H52.0686Z" fill="#D34836"/>
<path fill-rule="evenodd" clip-rule="evenodd" d="M12.0306 27.5635C12.0998 27.8122 12.1447 28.0712 12.1447 28.3412C12.1451 28.7187 12.0711 29.0926 11.9269 29.4415C11.7826 29.7904 11.5709 30.1073 11.3039 30.3743C11.0369 30.6412 10.7199 30.8528 10.371 30.997C10.0221 31.1411 9.64816 31.2151 9.27064 31.2145H7.10962C7.16147 30.2285 7.58982 29.3 8.30629 28.6207C9.02275 27.9413 9.97267 27.5629 10.96 27.5635H12.0306Z" fill="#FF5D42"/>
<path opacity="0.413" fill-rule="evenodd" clip-rule="evenodd" d="M22.5097 34.4805L18.1567 41.5551C18.4525 41.6184 18.7616 41.6596 19.0765 41.6596C19.9089 41.6599 20.7244 41.4247 21.4287 40.981C22.133 40.5373 22.6973 39.9034 23.0564 39.1524C23.4155 38.4015 23.5548 37.5642 23.458 36.7375C23.3613 35.9107 23.0325 35.1282 22.5097 34.4805Z" fill="#4C4C50"/>
<path opacity="0.466" fill-rule="evenodd" clip-rule="evenodd" d="M21.612 40.8575L14.8427 36.0439C14.7602 36.3353 14.6984 36.6399 14.6778 36.9549C14.6222 37.7853 14.8027 38.6145 15.1985 39.3467C15.5943 40.0788 16.1892 40.684 16.9145 41.0923C17.6398 41.5006 18.4658 41.6953 19.297 41.6538C20.1283 41.6124 20.9309 41.3366 21.612 40.8582V40.8575Z" fill="#4C4C50"/>
<path opacity="0.413" fill-rule="evenodd" clip-rule="evenodd" d="M47.3036 40.4672L39.9273 36.6484C39.8861 36.9479 39.8677 37.2591 39.8905 37.5733C39.9516 38.4035 40.2464 39.1994 40.7409 39.8691C41.2354 40.5387 41.9093 41.0548 42.6847 41.3575C43.4601 41.6602 44.3054 41.7372 45.1228 41.5797C45.9402 41.4221 46.6963 41.0364 47.3036 40.4672Z" fill="#4C4C50"/>
<path opacity="0.466" fill-rule="evenodd" clip-rule="evenodd" d="M43.3069 41.5217L42.3496 33.2705C42.0773 33.4044 41.8095 33.5626 41.5623 33.7576C40.9082 34.2724 40.4131 34.9617 40.1343 35.746C39.8555 36.5303 39.8044 37.3775 39.9869 38.1896C40.1694 39.0017 40.578 39.7456 41.1655 40.3353C41.753 40.9249 42.4954 41.3362 43.3069 41.5217Z" fill="#4C4C50"/>
<defs>
<linearGradient id="paint0_linear_1479_4780" x1="33.7166" y1="28.2696" x2="22.7543" y2="25.0508" gradientUnits="userSpaceOnUse">
<stop stop-color="#00B150"/>
<stop offset="1" stop-color="#00B150"/>
</linearGradient>
<linearGradient id="paint1_linear_1479_4780" x1="27.5429" y1="34.8144" x2="42.0864" y2="25.8019" gradientUnits="userSpaceOnUse">
<stop stop-color="#00B14F"/>
<stop offset="1" stop-color="#00B14F"/>
</linearGradient>
</defs>
</svg>
