<svg width="18" height="18" viewBox="0 0 18 18" fill="none" xmlns="http://www.w3.org/2000/svg">
<path d="M13.872 8.03177L7.395 14.6918C7.215 14.8763 6.9165 14.6625 7.0335 14.433L9.339 9.88352C9.35646 9.84919 9.36482 9.81094 9.36327 9.77245C9.36171 9.73396 9.35031 9.69651 9.33013 9.6637C9.30996 9.63088 9.2817 9.60379 9.24806 9.58503C9.21442 9.56626 9.17652 9.55644 9.138 9.55652H4.2885C4.24421 9.55649 4.20091 9.54338 4.16403 9.51884C4.12716 9.4943 4.09835 9.45942 4.08121 9.41858C4.06407 9.37774 4.05937 9.33274 4.06769 9.28924C4.07602 9.24573 4.097 9.20565 4.128 9.17402L10.1355 3.08777C10.3095 2.91152 10.599 3.10502 10.5023 3.33377L8.7795 7.39502C8.76492 7.42945 8.75914 7.46698 8.7627 7.5042C8.76626 7.54142 8.77904 7.57717 8.79988 7.60822C8.82073 7.63926 8.84898 7.66462 8.88209 7.682C8.91519 7.69938 8.95211 7.70824 8.9895 7.70777L13.7078 7.64927C13.7523 7.64856 13.796 7.66107 13.8334 7.68523C13.8708 7.70938 13.9002 7.7441 13.9179 7.78497C13.9356 7.82585 13.9407 7.87105 13.9327 7.91485C13.9246 7.95865 13.9038 7.99908 13.8728 8.03102L13.872 8.03177Z" stroke="black" stroke-width="1.5"/>
</svg>
