<svg width="36" height="36" viewBox="0 0 36 36" fill="none" xmlns="http://www.w3.org/2000/svg">
<path d="M23.5564 16.0499L22.4156 15.3174L21.9234 16.0838L23.2346 16.9257L23.5564 16.0499Z" fill="#007F2F"/>
<path d="M21.7565 16.7232L20.665 16.3212C20.4337 16.2361 20.2375 16.0761 20.1076 15.8666C19.9778 15.6572 19.9216 15.4103 19.9481 15.1653L19.9799 14.872C19.9893 14.7853 20.0157 14.7013 20.0575 14.6248C20.0994 14.5483 20.156 14.4808 20.224 14.4263C20.292 14.3717 20.3701 14.331 20.4538 14.3067C20.5376 14.2823 20.6253 14.2747 20.712 14.2843L22.3067 14.4608C23.0202 14.5397 23.4702 15.2674 23.2221 15.941L23.1754 16.068C23.0741 16.343 22.8677 16.5665 22.6016 16.6894C22.3356 16.8122 22.0316 16.8244 21.7565 16.7232Z" fill="#00903A"/>
<path d="M21.798 26.1973V30.199C21.798 30.9757 22.4276 31.6053 23.2043 31.6053H25.379C26.1557 31.6053 26.7853 30.9757 26.7853 30.199V26.1973H21.798Z" fill="#414042"/>
<path d="M35.551 17.2969H23.0982L21.6676 19.4738C21.28 20.0636 21.0735 20.754 21.0735 21.4598V26.3877C21.0735 27.8857 22.2878 29.1001 23.7859 29.1L35.2697 29.0998C35.3443 29.0998 35.4159 29.0702 35.4686 29.0174C35.5214 28.9647 35.551 28.8932 35.551 28.8186V17.2969Z" fill="#00903A"/>
<path d="M34.8479 17.2969V28.1156C34.8479 28.1902 34.8182 28.2617 34.7655 28.3145C34.7127 28.3672 34.6412 28.3968 34.5666 28.3968L23.0829 28.397C22.5353 28.3976 22.0005 28.2317 21.5495 27.9211C22.0385 28.6328 22.8573 29.1001 23.786 29.1001L35.2697 29.1C35.3443 29.1 35.4159 29.0703 35.4686 29.0176C35.5214 28.9648 35.551 28.8933 35.551 28.8187V17.2969H34.8479Z" fill="#007F2F"/>
<path d="M35.551 21.707H30.9565C30.3635 21.707 29.9311 22.2683 30.0822 22.8416L30.5096 24.4622C30.5605 24.6552 30.6739 24.826 30.832 24.9478C30.9902 25.0697 31.1842 25.1358 31.3838 25.1358H35.551V21.707Z" fill="#58595B"/>
<path d="M34.8479 21.707H35.551V25.1358H34.8479V21.707Z" fill="#414042"/>
<path d="M35.551 17.2969H24.2141C24.1499 17.2969 24.0868 17.314 24.0314 17.3464C23.976 17.3789 23.9302 17.4255 23.8988 17.4815L23.406 18.3593C23.132 18.8475 23.363 19.465 23.8904 19.6533L27.6498 20.996C27.845 21.0658 28.0508 21.1013 28.258 21.1013H35.551V17.2969Z" fill="#6AC985"/>
<path d="M34.8479 17.2969H35.551V21.1012H34.8479V17.2969Z" fill="#00B150"/>
<path d="M28.0017 22.4631C27.289 21.7594 25.6622 20.6355 22.5097 20.5801C22.435 20.5792 22.3619 20.6013 22.3003 20.6435C22.2387 20.6857 22.1916 20.7459 22.1655 20.8158C21.9679 21.3437 21.6477 22.5936 22.877 22.9352C24.0422 23.2589 26.5516 23.1505 27.7709 23.0728C28.0787 23.0533 28.2212 22.6798 28.0017 22.4631Z" fill="white"/>
<path d="M28.0017 22.463C27.8259 22.2893 27.5937 22.0902 27.2974 21.8877C27.3073 22.0705 27.1772 22.2528 26.9647 22.2664C25.7453 22.344 23.236 22.4524 22.0708 22.1287C22.0508 22.1232 22.0348 22.1155 22.0157 22.1095C22.102 22.4669 22.3432 22.7867 22.8772 22.9351C24.0424 23.2588 26.5517 23.1504 27.771 23.0727C28.0787 23.0532 28.2212 22.6797 28.0017 22.463Z" fill="#F1F2F2"/>
<path d="M35.2697 9.03613H28.6573C27.917 9.03614 27.1945 9.26333 26.5875 9.68703C25.9804 10.1107 25.518 10.7105 25.2627 11.4054L23.0982 17.2964H35.551V9.31738C35.551 9.24279 35.5214 9.17125 35.4686 9.11851C35.4159 9.06576 35.3443 9.03613 35.2697 9.03613Z" fill="#00903A"/>
<path d="M35.2697 9.03613H34.5666C34.6412 9.03613 34.7127 9.06576 34.7655 9.11851C34.8182 9.17125 34.8479 9.24279 34.8479 9.31738V17.2964H35.551V9.31738C35.551 9.24279 35.5214 9.17125 35.4686 9.11851C35.4159 9.06576 35.3443 9.03613 35.2697 9.03613Z" fill="#007F2F"/>
<path d="M35.551 10.4678H27.713C27.3446 10.4678 26.9849 10.5803 26.6822 10.7903C26.3795 11.0004 26.1482 11.2979 26.0193 11.643L24.4882 15.7397C24.4677 15.7944 24.4608 15.8532 24.4681 15.9112C24.4754 15.9691 24.4965 16.0244 24.5298 16.0724C24.5631 16.1204 24.6075 16.1596 24.6593 16.1867C24.711 16.2138 24.7685 16.2279 24.8269 16.2279H35.5511L35.551 10.4678Z" fill="#F1F2F2"/>
<path d="M32.2111 11.5928H32.1092C32.0346 11.5928 31.9631 11.5631 31.9103 11.5104C31.8576 11.4577 31.8279 11.3861 31.8279 11.3115C31.8279 11.2369 31.8576 11.1654 31.9103 11.1126C31.9631 11.0599 32.0346 11.0303 32.1092 11.0303H32.2111C32.2857 11.0303 32.3573 11.0599 32.41 11.1126C32.4628 11.1654 32.4924 11.2369 32.4924 11.3115C32.4924 11.3861 32.4628 11.4577 32.41 11.5104C32.3573 11.5631 32.2857 11.5928 32.2111 11.5928ZM30.9842 11.5928H27.7498C27.6752 11.5928 27.6037 11.5631 27.5509 11.5104C27.4982 11.4577 27.4686 11.3861 27.4686 11.3115C27.4686 11.2369 27.4982 11.1654 27.5509 11.1126C27.6037 11.0599 27.6752 11.0303 27.7498 11.0303H30.9842C31.0588 11.0303 31.1303 11.0599 31.1831 11.1126C31.2358 11.1654 31.2654 11.2369 31.2654 11.3115C31.2654 11.3861 31.2358 11.4577 31.1831 11.5104C31.1303 11.5631 31.0588 11.5928 30.9842 11.5928Z" fill="white"/>
<path d="M34.1447 10.4678V14.1184C34.1447 14.3049 34.0707 14.4837 33.9388 14.6156C33.8069 14.7474 33.6281 14.8215 33.4416 14.8215H24.8311L24.488 15.7395C24.4676 15.7942 24.4607 15.8531 24.468 15.911C24.4752 15.969 24.4964 16.0243 24.5297 16.0723C24.563 16.1202 24.6074 16.1595 24.6591 16.1865C24.7109 16.2136 24.7684 16.2278 24.8268 16.2278H35.5511V10.4678H34.1447Z" fill="#E6E7E8"/>
<path d="M34.8479 10.4678V14.8215C34.8479 15.008 34.7738 15.1868 34.6419 15.3187C34.5101 15.4506 34.3312 15.5246 34.1447 15.5246H24.5683L24.488 15.7395C24.4676 15.7942 24.4607 15.8531 24.468 15.911C24.4752 15.969 24.4964 16.0243 24.5297 16.0723C24.563 16.1202 24.6074 16.1595 24.6591 16.1865C24.7109 16.2136 24.7684 16.2278 24.8268 16.2278H35.5511V10.4678H34.8479Z" fill="#D1D3D4"/>
<path d="M35.551 26.1201H27.485C27.3519 26.1201 27.2203 26.1495 27.0998 26.2063C26.9794 26.263 26.8729 26.3457 26.7881 26.4483L26.2825 27.0602C26.0878 27.296 26.2554 27.6522 26.5614 27.6522H35.5511L35.551 26.1201Z" fill="#58595B"/>
<path d="M34.8479 26.1201H35.551V27.6522H34.8479V26.1201Z" fill="#414042"/>
<path d="M24.255 27.9343C24.8339 27.9343 25.3032 27.465 25.3032 26.8861C25.3032 26.3072 24.8339 25.8379 24.255 25.8379C23.6761 25.8379 23.2068 26.3072 23.2068 26.8861C23.2068 27.465 23.6761 27.9343 24.255 27.9343Z" fill="#D1D3D4"/>
<path d="M24.255 27.5241C24.6074 27.5241 24.893 27.2384 24.893 26.8861C24.893 26.5337 24.6074 26.248 24.255 26.248C23.9026 26.248 23.617 26.5337 23.617 26.8861C23.617 27.2384 23.9026 27.5241 24.255 27.5241Z" fill="white"/>
<path d="M12.824 30.9023V29.0742C12.824 28.8877 12.7499 28.7089 12.6181 28.577C12.4862 28.4452 12.3074 28.3711 12.1209 28.3711H1.15215C0.965665 28.3711 0.786822 28.4452 0.654961 28.577C0.523099 28.7089 0.44902 28.8877 0.44902 29.0742V30.9023C0.44902 31.0888 0.523099 31.2677 0.654961 31.3995C0.786822 31.5314 0.965665 31.6055 1.15215 31.6055H12.1209C12.3074 31.6055 12.4862 31.5314 12.6181 31.3995C12.7499 31.2677 12.824 31.0888 12.824 30.9023Z" fill="#58595B"/>
<path d="M12.1209 28.3711V30.1992C12.1209 30.3857 12.0468 30.5645 11.915 30.6964C11.7831 30.8283 11.6043 30.9023 11.4178 30.9023H0.44902C0.44902 31.0888 0.523099 31.2677 0.654961 31.3995C0.786822 31.5314 0.965665 31.6055 1.15215 31.6055H12.1209C12.3074 31.6055 12.4862 31.5314 12.6181 31.3995C12.7499 31.2677 12.824 31.0888 12.824 30.9023V29.0742C12.824 28.8877 12.7499 28.7089 12.6181 28.577C12.4862 28.4452 12.3074 28.3711 12.1209 28.3711Z" fill="#414042"/>
<path d="M11.8557 28.3707V5.80176C11.8557 5.02509 11.2261 4.39551 10.4494 4.39551H2.82361C2.04694 4.39551 1.41736 5.02509 1.41736 5.80176V28.3705L11.8557 28.3707Z" fill="#FFC91D"/>
<path d="M11.0274 4.52051C11.1098 4.70205 11.1525 4.8991 11.1525 5.09848V26.9641C11.1525 27.1506 11.0785 27.3294 10.9466 27.4613C10.8147 27.5932 10.6359 27.6672 10.4494 27.6672H1.41736V28.3704H11.8557V5.80146C11.8557 5.23109 11.5155 4.74101 11.0274 4.52051Z" fill="#FFA91A"/>
<path d="M10.5858 12.1057V6.64941C10.5858 6.46293 10.5118 6.28409 10.3799 6.15223C10.248 6.02037 10.0692 5.94629 9.88271 5.94629H3.39034C3.20385 5.94629 3.02501 6.02037 2.89315 6.15223C2.76129 6.28409 2.68721 6.46293 2.68721 6.64941V12.1058C2.68721 12.2923 2.76129 12.4711 2.89315 12.603C3.02501 12.7349 3.20385 12.8089 3.39034 12.8089H9.88271C10.0692 12.8089 10.248 12.7348 10.3799 12.6029C10.5118 12.471 10.5858 12.2922 10.5858 12.1057Z" fill="#5E9CF7"/>
<path d="M8.30265 11.3749H7.7829C7.53605 11.3746 7.2994 11.2764 7.12486 11.1019C6.95031 10.9273 6.85212 10.6907 6.85182 10.4438V8.36467C6.85182 7.85139 7.26948 7.43359 7.7829 7.43359H8.30265C8.81593 7.43359 9.23373 7.85125 9.23373 8.36467C9.23373 8.43926 9.2041 8.5108 9.15135 8.56355C9.09861 8.61629 9.02707 8.64592 8.95248 8.64592C8.87789 8.64592 8.80635 8.61629 8.7536 8.56355C8.70086 8.5108 8.67123 8.43926 8.67123 8.36467C8.67112 8.26695 8.63225 8.17327 8.56315 8.10417C8.49405 8.03507 8.40037 7.99621 8.30265 7.99609H7.7829C7.68518 7.99621 7.5915 8.03507 7.5224 8.10417C7.4533 8.17327 7.41443 8.26695 7.41432 8.36467V10.4438C7.41443 10.5415 7.4533 10.6352 7.5224 10.7043C7.5915 10.7734 7.68518 10.8123 7.7829 10.8124H8.30265C8.40037 10.8123 8.49405 10.7734 8.56315 10.7043C8.63225 10.6352 8.67112 10.5415 8.67123 10.4438C8.67123 10.3692 8.70086 10.2977 8.7536 10.2449C8.80635 10.1922 8.87789 10.1626 8.95248 10.1626C9.02707 10.1626 9.09861 10.1922 9.15135 10.2449C9.2041 10.2977 9.23373 10.3692 9.23373 10.4438C9.23343 10.6907 9.13524 10.9273 8.96069 11.1019C8.78615 11.2764 8.5495 11.3746 8.30265 11.3749ZM4.73373 11.3749H4.32057C4.24598 11.3749 4.17444 11.3453 4.1217 11.2925C4.06895 11.2398 4.03932 11.1682 4.03932 11.0936V7.71484C4.03932 7.64025 4.06895 7.56871 4.1217 7.51597C4.17444 7.46323 4.24598 7.43359 4.32057 7.43359H4.73373C5.66424 7.43359 6.42123 8.19058 6.42123 9.12109V9.68725C6.42123 10.6178 5.6641 11.3749 4.73373 11.3749ZM4.60182 10.8124H4.73373C5.35402 10.8124 5.85873 10.3077 5.85873 9.68739V9.12109C5.85873 8.5008 5.35402 7.99609 4.73373 7.99609H4.60182V10.8124Z" fill="white"/>
<path d="M18.4906 23.1823H17.2088C17.1343 23.1823 17.0627 23.1526 17.01 23.0999C16.9572 23.0471 16.9276 22.9756 16.9276 22.901V22.5254H18.7719V22.901C18.7719 22.9756 18.7423 23.0471 18.6895 23.0999C18.6368 23.1526 18.5652 23.1823 18.4906 23.1823Z" fill="#414042"/>
<path d="M19.8605 17.4913L20.503 19.0293C20.5455 19.1312 20.5492 19.2451 20.5135 19.3496C20.4777 19.454 20.4049 19.5417 20.3088 19.5961L19.2911 20.172C19.2215 20.2113 19.1637 20.2685 19.1234 20.3375C19.0832 20.4065 19.062 20.485 19.062 20.5649V22.3455C19.062 22.4452 18.9811 22.5261 18.8814 22.5261H16.8179C16.77 22.5261 16.7241 22.507 16.6902 22.4732C16.6564 22.4393 16.6373 22.3934 16.6373 22.3455V19.7889C16.6373 19.1387 16.9869 18.5386 17.5527 18.2181L19.2213 17.2726C19.2769 17.2411 19.3384 17.2218 19.402 17.2158C19.4656 17.2099 19.5297 17.2175 19.5901 17.2382C19.6505 17.2588 19.7058 17.2921 19.7524 17.3357C19.799 17.3793 19.8359 17.4323 19.8605 17.4913Z" fill="#00B150"/>
<path d="M19.8605 17.4913L20.503 19.0293C20.5455 19.1312 20.5492 19.2451 20.5135 19.3496C20.4777 19.454 20.4049 19.5417 20.3088 19.5961L19.2911 20.172C19.2215 20.2113 19.1637 20.2685 19.1234 20.3375C19.0832 20.4065 19.062 20.485 19.062 20.5649V22.3455C19.062 22.4452 18.9811 22.5261 18.8814 22.5261H16.8179C16.77 22.5261 16.7241 22.507 16.6902 22.4732C16.6564 22.4393 16.6373 22.3934 16.6373 22.3455V19.7889C16.6373 19.1387 16.9869 18.5386 17.5527 18.2181L19.2213 17.2726C19.2769 17.2411 19.3384 17.2218 19.402 17.2158C19.4656 17.2099 19.5297 17.2175 19.5901 17.2382C19.6505 17.2588 19.7058 17.2921 19.7524 17.3357C19.799 17.3793 19.8359 17.4323 19.8605 17.4913Z" fill="#58595B"/>
<path d="M17.5528 18.2174L18.1122 17.9004C18.3122 18.3283 18.3362 18.9187 18.1343 19.5084C17.8547 20.3245 17.233 20.8771 16.6375 20.9019V19.7881C16.6374 19.4687 16.7221 19.1551 16.8829 18.8791C17.0437 18.6031 17.2749 18.3748 17.5528 18.2174Z" fill="#808285"/>
<path d="M17.1466 28.1155H15.2429C14.6226 28.1155 14.1179 27.6108 14.1179 26.9905V13.5938C14.1179 13.4386 13.9918 13.3125 13.8367 13.3125H11.8557V12.4688H13.8367C14.457 12.4688 14.9617 12.9735 14.9617 13.5938V26.9905C14.9617 27.1456 15.0878 27.2718 15.2429 27.2718H17.1466C17.3017 27.2718 17.4278 27.1456 17.4278 26.9905V23.1824H18.2716V26.9905C18.2717 27.6108 17.7669 28.1155 17.1466 28.1155Z" fill="#939598"/>
<path d="M7.47141 14.5654H6.54497C6.47972 14.5654 6.42051 14.6038 6.3938 14.6634L5.12564 17.5052C5.11441 17.5304 5.10966 17.558 5.11182 17.5855C5.11398 17.613 5.12298 17.6395 5.138 17.6627C5.15302 17.6858 5.17359 17.7048 5.19783 17.718C5.22207 17.7312 5.24922 17.7381 5.27681 17.7381H6.64228L5.89542 19.8519C5.87039 19.9227 5.9639 19.9739 6.01003 19.9147L8.12686 17.1943C8.21137 17.0856 8.13403 16.9272 7.99622 16.9272H6.63975L7.62159 14.8001C7.63323 14.7749 7.63834 14.7472 7.63644 14.7195C7.63454 14.6918 7.62571 14.665 7.61075 14.6417C7.59579 14.6183 7.57518 14.599 7.55083 14.5857C7.52648 14.5724 7.49916 14.5654 7.47141 14.5654Z" fill="white"/>
<path d="M7.18579 14.8003L6.26104 16.8036C6.25491 16.8169 6.25221 16.8315 6.25321 16.8461C6.25421 16.8607 6.25887 16.8748 6.26675 16.8872C6.27464 16.8995 6.2855 16.9096 6.29834 16.9167C6.31118 16.9237 6.32558 16.9274 6.34022 16.9274H6.63975L7.62159 14.8003C7.67222 14.6906 7.59206 14.5654 7.4714 14.5654H7.03561C7.15626 14.5654 7.23642 14.6907 7.18579 14.8003ZM7.99622 16.9274H7.56042C7.69809 16.9274 7.77558 17.0857 7.69106 17.1944L6.12197 19.2108L5.89542 19.8521C5.87039 19.9228 5.9639 19.974 6.01003 19.9148L8.12686 17.1944C8.21137 17.0857 8.13389 16.9274 7.99622 16.9274Z" fill="#F1F2F2"/>
</svg>
