<svg width="24" height="24" viewBox="0 0 24 24" fill="none" xmlns="http://www.w3.org/2000/svg">
<g clip-path="url(#clip0_56_1561)">
<path d="M9.57374 4.52637C7.97509 5.08096 6.59642 6.13358 5.64023 7.52962C4.68404 8.92567 4.20073 10.5915 4.2613 12.2826C4.32186 13.9736 4.9231 15.6006 5.97671 16.9247C7.03032 18.2488 8.48077 19.2001 10.115 19.6389C11.4399 19.9807 12.828 19.9958 14.16 19.6826C15.3666 19.4116 16.4822 18.8318 17.3975 18.0001C18.3501 17.1081 19.0415 15.9732 19.3975 14.7176C19.7844 13.3522 19.8532 11.9163 19.5987 10.5201H12.1587V13.6064H16.4675C16.3814 14.0986 16.1968 14.5684 15.9249 14.9877C15.653 15.4069 15.2993 15.767 14.885 16.0464C14.3588 16.3944 13.7657 16.6286 13.1437 16.7339C12.5199 16.8499 11.8801 16.8499 11.2562 16.7339C10.624 16.6031 10.0259 16.3422 9.49999 15.9676C8.65518 15.3696 8.02084 14.52 7.68749 13.5401C7.34851 12.5419 7.34851 11.4596 7.68749 10.4614C7.92478 9.76164 8.31703 9.12454 8.83499 8.59762C9.42773 7.98355 10.1782 7.54462 11.0039 7.32896C11.8297 7.11331 12.6989 7.12928 13.5162 7.37512C14.1547 7.57111 14.7386 7.91354 15.2212 8.37512C15.7071 7.89179 16.1921 7.4072 16.6762 6.92137C16.9262 6.66012 17.1987 6.41137 17.445 6.14387C16.7082 5.45822 15.8433 4.92469 14.9 4.57387C13.1821 3.95011 11.3025 3.93334 9.57374 4.52637Z" fill="white"/>
<path d="M9.57375 4.52624C11.3023 3.93282 13.182 3.94914 14.9 4.57249C15.8435 4.9257 16.708 5.46179 17.4438 6.14999C17.1938 6.41749 16.93 6.66749 16.675 6.92749C16.19 7.41166 15.7054 7.89416 15.2213 8.37499C14.7386 7.91342 14.1547 7.57098 13.5163 7.37499C12.6992 7.1283 11.83 7.1114 11.004 7.32617C10.178 7.54094 9.42714 7.97907 8.83375 8.59249C8.31579 9.11941 7.92353 9.75652 7.68625 10.4562L5.095 8.44999C6.02251 6.6107 7.62844 5.20377 9.57375 4.52624Z" fill="#E33629"/>
<path d="M4.4075 10.4375C4.54678 9.74719 4.778 9.07873 5.095 8.44995L7.68625 10.4612C7.34727 11.4595 7.34727 12.5417 7.68625 13.54C6.82292 14.2066 5.95917 14.8766 5.095 15.55C4.30144 13.9703 4.05941 12.1706 4.4075 10.4375Z" fill="#F8BD00"/>
<path d="M12.1587 10.5188H19.5987C19.8532 11.915 19.7844 13.3509 19.3975 14.7163C19.0415 15.9719 18.3501 17.1067 17.3975 17.9988C16.5612 17.3463 15.7212 16.6988 14.885 16.0463C15.2996 15.7666 15.6535 15.4062 15.9254 14.9865C16.1973 14.5668 16.3817 14.0965 16.4675 13.6038H12.1587C12.1575 12.5763 12.1587 11.5475 12.1587 10.5188Z" fill="#587DBD"/>
<path d="M5.09375 15.55C5.95792 14.8834 6.82167 14.2134 7.685 13.54C8.01901 14.5203 8.65426 15.3699 9.5 15.9675C10.0275 16.3404 10.6269 16.5992 11.26 16.7275C11.8838 16.8435 12.5237 16.8435 13.1475 16.7275C13.7695 16.6223 14.3626 16.3881 14.8888 16.04C15.725 16.6925 16.565 17.34 17.4012 17.9925C16.4861 18.8247 15.3705 19.4049 14.1637 19.6763C12.8318 19.9894 11.4437 19.9744 10.1188 19.6325C9.07088 19.3528 8.09209 18.8595 7.24375 18.1838C6.34583 17.4709 5.61244 16.5725 5.09375 15.55Z" fill="#319F43"/>
</g>
<defs>
<clipPath id="clip0_56_1561">
<rect width="16" height="16" fill="white" transform="translate(4 4)"/>
</clipPath>
</defs>
</svg>
