<svg width="24" height="24" viewBox="0 0 24 24" fill="none" xmlns="http://www.w3.org/2000/svg">
<path d="M9.53898 15.23C7.94032 15.23 6.58532 14.6747 5.47398 13.564C4.36332 12.454 3.80798 11.0993 3.80798 9.49999C3.80798 7.90066 4.36332 6.54566 5.47398 5.43499C6.58465 4.32432 7.93965 3.76932 9.53898 3.76999C11.1383 3.77066 12.493 4.32599 13.603 5.43599C14.713 6.54599 15.2683 7.90066 15.269 9.49999C15.269 10.1947 15.146 10.867 14.9 11.517C14.654 12.167 14.3306 12.723 13.93 13.185L19.839 19.092C19.9323 19.1853 19.9823 19.3003 19.989 19.437C19.995 19.5723 19.945 19.6933 19.839 19.8C19.7323 19.9067 19.6143 19.96 19.485 19.96C19.3556 19.96 19.2376 19.9067 19.131 19.8L13.223 13.892C12.723 14.318 12.148 14.6477 11.498 14.881C10.848 15.1143 10.1947 15.231 9.53798 15.231M9.53798 14.231C10.8647 14.231 11.985 13.7743 12.899 12.861C13.8123 11.9477 14.269 10.8273 14.269 9.49999C14.269 8.17266 13.8126 7.05266 12.9 6.13999C11.9873 5.22732 10.8673 4.77066 9.53998 4.76999C8.21265 4.76999 7.09232 5.22666 6.17898 6.13999C5.26565 7.05332 4.80865 8.17332 4.80798 9.49999C4.80732 10.8267 5.26398 11.9467 6.17798 12.86C7.09198 13.7733 8.21198 14.23 9.53798 14.23" fill="#4F4F4F"/>
</svg>
