<svg width="24" height="24" viewBox="0 0 24 24" fill="none" xmlns="http://www.w3.org/2000/svg">
<g clip-path="url(#clip0_296_1166)">
<mask id="mask0_296_1166" style="mask-type:luminance" maskUnits="userSpaceOnUse" x="0" y="0" width="56" height="25">
<path d="M55.3846 0H0V24.0937H55.3846V0Z" fill="white"/>
</mask>
<g mask="url(#mask0_296_1166)">
<path d="M13.3457 0.0593576C13.0761 0.137042 12.8019 0.31526 12.6557 0.511756C12.5963 0.594011 12.0388 1.49424 11.4219 2.51328C10.7136 3.68313 10.2795 4.44625 10.2475 4.58334C10.1241 5.05404 10.348 5.53841 10.7913 5.76691C11.0929 5.92683 11.3945 5.93598 11.7189 5.79433C11.9246 5.70748 12.0891 5.52926 13.3686 4.04869C14.8675 2.31221 14.9954 2.14314 15.0959 1.85068C15.1828 1.57649 15.1691 1.11039 15.0594 0.863624C14.7715 0.219297 14.0266 -0.132569 13.3457 0.0593576Z" fill="#F04837"/>
<path d="M14.0541 4.61082C13.8667 4.72049 13.7982 4.79819 13.7068 4.99011C13.6017 5.21402 13.5743 5.43795 13.3549 7.74108C13.2178 9.20335 13.131 10.3275 13.1447 10.4372C13.2224 10.9079 13.5194 11.2963 13.9536 11.4928C14.2003 11.6024 14.278 11.6161 14.6024 11.5979C14.8858 11.5887 15.032 11.5568 15.1965 11.4699C15.5895 11.2734 15.8957 10.8439 15.9459 10.4281C15.9596 10.3092 15.8637 9.07997 15.7311 7.69995C15.4616 4.885 15.4661 4.89871 15.096 4.63824C14.9406 4.52856 14.8492 4.50115 14.5979 4.48744C14.3237 4.47373 14.2643 4.48744 14.0541 4.61082Z" fill="#F04837"/>
<path d="M1.08534 4.56514C0.683204 4.67025 0.326768 4.94899 0.14398 5.30998C0.0662956 5.45167 0.0343079 5.61158 0.0205988 5.89492C0.00232008 6.26506 0.0114595 6.29704 0.157689 6.56666C0.317629 6.86826 3.01374 10.0351 3.27422 10.227C3.66263 10.5149 4.21559 10.4783 4.604 10.1356C4.86447 9.90711 4.96499 9.64664 4.93758 9.26734C4.91931 8.98401 4.91016 8.95659 3.74489 7.03733C2.52479 5.02669 2.40141 4.85303 1.99471 4.65654C1.77079 4.55143 1.31382 4.50574 1.08534 4.56514Z" fill="#F04837"/>
<path d="M5.0609 5.56134C4.70906 5.74411 4.5354 6.032 4.5354 6.42501C4.5354 6.75859 4.67249 7.05103 4.89639 7.19728C4.9878 7.25667 6.08908 7.75479 7.34576 8.30315L9.63061 9.29476L10.019 9.29932C10.3389 9.29932 10.4486 9.28105 10.6314 9.18965C11.6047 8.70983 11.7144 7.32981 10.8187 6.73573C10.604 6.59408 10.4029 6.53924 8.12262 6.03201C6.69687 5.7167 5.55902 5.48364 5.42649 5.48364C5.30311 5.4882 5.1386 5.52021 5.0609 5.56134Z" fill="#F04837"/>
<path d="M17.4219 9.48667C17.0335 9.65574 16.8096 10.0168 16.8096 10.4646C16.8096 10.8165 16.9375 11.0906 17.1934 11.2917C17.2802 11.3603 18.281 11.8035 19.4097 12.2742L21.4661 13.1378H21.8773C22.3252 13.1378 22.5171 13.0693 22.8278 12.7997C23.3488 12.3382 23.4173 11.4425 22.9786 10.8667C22.709 10.5149 22.5537 10.46 20.2277 9.91166C18.0114 9.39527 17.7326 9.34958 17.4219 9.48667Z" fill="#F04837"/>
<path d="M5.91539 10.172C5.49956 10.3274 5.35332 10.5285 4.02813 12.7722C3.34724 13.9283 2.75775 14.9473 2.7212 15.0342C2.63437 15.2352 2.66179 15.6008 2.78517 15.8384C2.83544 15.9344 2.96339 16.0761 3.06849 16.1537C3.33811 16.3411 3.78137 16.3685 4.06926 16.2132C4.21091 16.1355 4.73185 15.5779 5.9474 14.2025C7.81639 12.0867 7.83466 12.0593 7.83466 11.4881C7.83466 10.9352 7.54677 10.4691 7.05324 10.2269C6.78366 10.0943 6.20788 10.0669 5.91539 10.172Z" fill="#F04837"/>
<path d="M15.6765 13.3435C13.0946 13.9193 12.9301 13.9741 12.6742 14.2986C12.4411 14.591 12.3817 14.7647 12.3589 15.1531C12.3406 15.4867 12.3543 15.5553 12.4594 15.7929C12.6193 16.1448 12.8433 16.3687 13.1814 16.5195C13.4191 16.6246 13.5013 16.6428 13.8075 16.6246C14.1456 16.6063 14.2187 16.5789 16.3939 15.6329C17.6277 15.0983 18.7153 14.6139 18.8204 14.5545C18.9438 14.4814 19.0443 14.3671 19.1311 14.2118C19.3916 13.7365 19.218 13.147 18.7519 12.9003C18.6102 12.8272 18.4777 12.7952 18.3177 12.7997C18.1898 12.7997 17.0017 13.0465 15.6765 13.3435Z" fill="#F04837"/>
<path d="M8.11819 14.7555C7.78918 14.9109 7.54241 15.176 7.40988 15.5324C7.27735 15.8797 7.30477 16.3321 7.47387 16.6565C7.64293 16.9764 10.8554 20.6002 11.0931 20.7327C11.4175 20.9155 11.9293 20.8515 12.2035 20.5956C12.4137 20.4037 12.4959 20.1661 12.4777 19.837L12.4594 19.5355L11.1844 17.3649C10.4807 16.1722 9.84553 15.1303 9.77699 15.048C9.70385 14.9658 9.52108 14.8378 9.37028 14.7601C9.13266 14.6459 9.0367 14.623 8.74422 14.623C8.45633 14.623 8.35125 14.6459 8.11819 14.7555Z" fill="#F04837"/>
<path d="M3.55301 17.2278C2.32835 17.5156 1.36871 17.7624 1.25904 17.8218C0.984857 17.968 0.747235 18.2102 0.623853 18.4798C0.468481 18.8089 0.468481 19.3481 0.623853 19.6771C0.856907 20.1798 1.24533 20.4311 1.83939 20.4631L2.22781 20.4814L4.32987 19.604C5.48598 19.1242 6.50505 18.6718 6.59186 18.6032C6.83407 18.4113 6.95745 18.1371 6.95745 17.7898C6.95745 17.1546 6.53247 16.7205 5.92012 16.7296C5.75105 16.7296 4.87823 16.9124 3.55301 17.2278Z" fill="#F04837"/>
<path d="M14.2917 17.4058C13.9535 17.4926 13.6337 17.7714 13.5377 18.073C13.4692 18.2878 13.1173 22.6153 13.1493 22.8483C13.2178 23.3281 13.5377 23.7622 13.9673 23.9496C14.2917 24.0958 14.7989 24.0958 15.1143 23.9542C15.5621 23.7531 15.9002 23.2916 15.9459 22.83C15.9733 22.501 15.6078 18.2147 15.5301 18.0364C15.4433 17.8217 15.2422 17.6023 15.0457 17.5018C14.8492 17.4012 14.4882 17.3555 14.2917 17.4058Z" fill="#F04837"/>
</g>
</g>
<defs>
<clipPath id="clip0_296_1166">
<rect width="24" height="24" fill="white"/>
</clipPath>
</defs>
</svg>
