<svg width="25" height="24" viewBox="0 0 25 24" fill="none" xmlns="http://www.w3.org/2000/svg">
<path d="M8.13004 3.57C8.30942 3.47216 8.50004 3.62268 8.50004 3.82701V17.3828C8.50004 17.6061 8.34762 17.7949 8.15024 17.8992C8.14347 17.9027 8.13673 17.9063 8.13004 17.91L5.78004 19.25C4.14004 20.19 2.79004 19.41 2.79004 17.51V7.78C2.79004 7.15 3.24004 6.37 3.80004 6.05L8.13004 3.57Z" fill="#00B150"/>
<path d="M15.2219 6.10227C15.3922 6.18663 15.5 6.36026 15.5 6.55034V19.7035C15.5 20.072 15.115 20.3139 14.783 20.1539L10.533 18.1063C10.36 18.023 10.25 17.8479 10.25 17.6559V4.44558C10.25 4.07472 10.6396 3.83293 10.9719 3.99751L15.2219 6.10227Z" fill="#00B150"/>
<path d="M22.5 6.49V16.22C22.5 16.85 22.05 17.63 21.49 17.95L17.9986 19.951C17.6653 20.142 17.25 19.9013 17.25 19.5171V6.33032C17.25 6.15081 17.3462 5.98507 17.5021 5.89608L19.51 4.75C21.15 3.81 22.5 4.59 22.5 6.49Z" fill="#00B150"/>
</svg>
