<svg width="36" height="36" viewBox="0 0 36 36" fill="none" xmlns="http://www.w3.org/2000/svg">
<g clip-path="url(#clip0_929_833)">
<path fill-rule="evenodd" clip-rule="evenodd" d="M4.51321 9.60151H9.33201V12.2195H4.51321V9.60151ZM4.51321 2.37402H9.33201V4.99197H4.51321V2.37402Z" fill="#C8C5C9"/>
<path fill-rule="evenodd" clip-rule="evenodd" d="M12.5208 35.185C12.5208 35.6326 12.8884 36.0001 13.336 36.0001H15.8553C16.3029 36.0001 16.6684 35.6326 16.6684 35.185V32.4932H12.5208V35.185ZM30.0845 35.185C30.0845 35.6326 30.4521 36.0001 30.8997 36.0001H33.419C33.8666 36.0001 34.2342 35.6326 34.2342 35.185V32.4932H30.0845V35.185Z" fill="#6F6571"/>
<path fill-rule="evenodd" clip-rule="evenodd" d="M2.63025 1.38804V32.916L4.12875 33.9129L5.40626 32.916V1.38804C5.40626 0.624164 4.78209 0 4.01822 0C3.25434 0 2.63025 0.624164 2.63025 1.38804Z" fill="#ECEAEC"/>
<path fill-rule="evenodd" clip-rule="evenodd" d="M8.90916 13.4694H20.3151C20.5738 13.4694 20.7853 13.2579 20.7853 12.9992V1.59323C20.7853 1.33455 20.5738 1.12305 20.3151 1.12305H8.90916C8.65048 1.12305 8.43898 1.33455 8.43898 1.59323V12.9992C8.43898 13.2579 8.65041 13.4694 8.90916 13.4694Z" fill="#2080E0"/>
<path fill-rule="evenodd" clip-rule="evenodd" d="M20.7853 12.9991V1.59323C20.7853 1.33455 20.5738 1.12305 20.3151 1.12305H18.075C18.3317 1.12305 18.5432 1.33455 18.5432 1.59323V12.9992C18.5432 13.2579 18.3317 13.4694 18.075 13.4694H20.3151C20.5738 13.4694 20.7853 13.2579 20.7853 12.9991Z" fill="#0099F1"/>
<path fill-rule="evenodd" clip-rule="evenodd" d="M10.755 22.3475C10.755 23.2715 11.5045 24.0271 12.4223 24.0271H13.2497L15.2331 22.3475L14.843 20.668H12.4223C11.5045 20.668 10.755 21.4235 10.755 22.3475ZM31.912 20.668L31.8011 22.2223L33.5032 24.0271H34.3328C35.2485 24.0271 36 23.2716 36 22.3476C36 21.4236 35.2485 20.668 34.3328 20.668H31.912V20.668Z" fill="#007F2F"/>
<path fill-rule="evenodd" clip-rule="evenodd" d="M13.2498 24.0278H33.5032L31.9119 20.6687L31.0537 18.8577C30.1728 16.9995 30.0003 17.0221 27.8977 17.0282H18.8552C16.7547 17.0221 16.5822 16.9995 15.7014 18.8577L14.8432 20.6687L13.2498 24.0278Z" fill="#9FD4FE"/>
<path fill-rule="evenodd" clip-rule="evenodd" d="M31.0537 18.8577C30.1728 16.9995 30.0003 17.0221 27.8978 17.0282H26.2332C27.7383 17.0405 27.9621 17.211 28.7444 18.8577L29.6026 20.6687L31.0625 23.7465L31.1939 24.0278H33.5032L31.9119 20.6687L31.0537 18.8577Z" fill="#72BFFC"/>
<path d="M34.5011 26.1296L33.5032 24.027L33.4515 23.9281C33.4515 23.9281 30.9679 18.6892 30.9498 18.6515C30.5558 17.828 30.2421 17.2615 29.7025 16.9595C29.1824 16.6675 28.5877 16.669 27.5069 16.6726H19.1741C18.0941 16.669 17.4994 16.6675 16.9793 16.9595C16.4404 17.2615 16.1268 17.828 15.7328 18.6515C15.7146 18.6892 13.2289 24.0509 13.2289 24.0509L13.2385 24.0507L12.2539 26.1296C11.8987 26.877 11.9357 26.8338 11.9357 27.6613V32.3941C11.9357 32.9937 11.9562 33.2175 12.5209 33.2175H34.2342C34.7988 33.2175 34.8173 32.9937 34.8173 32.3941V27.6612C34.8173 26.8338 34.8563 26.8769 34.5011 26.1296ZM14.4392 23.8611C14.4392 23.8611 16.8346 18.8131 16.9193 18.6515C17.1387 18.2314 17.309 17.9931 17.4995 17.8859C17.7762 17.7309 18.3007 17.7323 19.1706 17.7352H27.51C28.3807 17.7323 28.9058 17.7309 29.1832 17.8859C29.3737 17.9931 29.5432 18.2314 29.7634 18.6515C29.8481 18.8131 32.2385 23.8506 32.2385 23.8506L14.4392 23.8611Z" fill="#50B86B"/>
<path d="M26.132 30.8459H20.6231C20.479 30.8459 20.3408 30.7887 20.239 30.6868C20.1371 30.5849 20.0798 30.4468 20.0798 30.3027C20.0798 30.1586 20.1371 30.0204 20.239 29.9186C20.3408 29.8167 20.479 29.7594 20.6231 29.7594H26.132C26.2761 29.7594 26.4142 29.8167 26.5161 29.9186C26.618 30.0204 26.6752 30.1586 26.6752 30.3027C26.6752 30.4468 26.618 30.5849 26.5161 30.6868C26.4142 30.7887 26.2761 30.8459 26.132 30.8459ZM26.132 28.3902H20.6231C20.479 28.3902 20.3408 28.3329 20.239 28.2311C20.1371 28.1292 20.0798 27.991 20.0798 27.8469C20.0798 27.7029 20.1371 27.5647 20.239 27.4628C20.3408 27.3609 20.479 27.3037 20.6231 27.3037H26.132C26.4321 27.3037 26.6752 27.5469 26.6752 27.8469C26.6752 28.147 26.4321 28.3902 26.132 28.3902Z" fill="#6F6571"/>
<path fill-rule="evenodd" clip-rule="evenodd" d="M28.4768 28.5633C28.4768 29.5243 29.2551 30.3024 30.2139 30.3024C31.1749 30.3024 31.953 29.5242 31.953 28.5633C31.953 27.6024 31.1748 26.8242 30.2139 26.8242C29.255 26.8242 28.4768 27.6024 28.4768 28.5633ZM14.8 28.5633C14.8 29.5243 15.5803 30.3024 16.5391 30.3024C17.5001 30.3024 18.2782 29.5242 18.2782 28.5633C18.2782 27.6024 17.5 26.8242 16.5391 26.8242C15.5802 26.8242 14.8 27.6024 14.8 28.5633Z" fill="#9FD4FE"/>
<path fill-rule="evenodd" clip-rule="evenodd" d="M18.2782 28.5633C18.2782 27.6024 17.5 26.8242 16.5391 26.8242C16.3162 26.8243 16.0953 26.8668 15.8882 26.9494C16.5268 27.2081 16.9765 27.8324 16.9765 28.5633C16.9765 29.2923 16.5268 29.9185 15.8882 30.1752C16.0949 30.2595 16.3159 30.3027 16.5391 30.3025C17.5 30.3024 18.2782 29.5243 18.2782 28.5633ZM31.953 28.5633C31.953 27.6024 31.1748 26.8242 30.2139 26.8242C29.991 26.8243 29.7701 26.8668 29.563 26.9494C30.2016 27.2081 30.6513 27.8324 30.6513 28.5633C30.6513 29.2923 30.2016 29.9185 29.563 30.1752C29.7697 30.2595 29.9907 30.3027 30.2139 30.3025C31.1748 30.3024 31.953 29.5243 31.953 28.5633Z" fill="#72BFFC"/>
<path d="M30.2159 30.845C28.9574 30.845 27.9335 29.8211 27.9335 28.5626C27.9335 27.3041 28.9574 26.2803 30.2159 26.2803C31.4733 26.2803 32.4963 27.3041 32.4963 28.5626C32.4963 29.8211 31.4734 30.845 30.2159 30.845ZM30.2159 27.3667C29.5566 27.3667 29.0201 27.9032 29.0201 28.5626C29.0201 29.222 29.5566 29.7585 30.2159 29.7585C30.8741 29.7585 31.4097 29.222 31.4097 28.5626C31.4097 27.9032 30.8742 27.3667 30.2159 27.3667ZM16.5391 30.845C15.2817 30.845 14.2587 29.8211 14.2587 28.5626C14.2587 27.3041 15.2817 26.2803 16.5391 26.2803C17.7976 26.2803 18.8215 27.3041 18.8215 28.5626C18.8215 29.8211 17.7976 30.845 16.5391 30.845ZM16.5391 27.3667C15.8809 27.3667 15.3453 27.9032 15.3453 28.5626C15.3453 29.222 15.8809 29.7585 16.5391 29.7585C17.1985 29.7585 17.735 29.222 17.735 28.5626C17.7349 27.9032 17.1985 27.3667 16.5391 27.3667Z" fill="#ECEAEC"/>
<path fill-rule="evenodd" clip-rule="evenodd" d="M12.5208 33.2178H16.6684V34.6079H12.5208V33.2178ZM30.0845 33.2178H34.2342V34.6079H30.0845V33.2178Z" fill="#5D5360"/>
<path fill-rule="evenodd" clip-rule="evenodd" d="M0.314156 35.9939H7.72235C7.89687 35.9939 8.03855 35.8522 8.03855 35.6797V34.4539C8.03855 33.608 7.34456 32.916 6.49856 32.916H1.53998C0.691945 32.916 0 33.608 0 34.454V35.6798C0 35.8522 0.14168 35.9939 0.314156 35.9939Z" fill="#6F6571"/>
<path fill-rule="evenodd" clip-rule="evenodd" d="M8.03854 34.4539C8.03854 33.608 7.34456 32.916 6.49856 32.916H4.30368C5.14961 32.916 5.84156 33.608 5.84156 34.4539V35.6797C5.84144 35.7623 5.80886 35.8415 5.75085 35.9003C5.69284 35.9591 5.61405 35.9927 5.53148 35.9939H7.72234C7.89686 35.9939 8.03854 35.8522 8.03854 35.6797V34.4539Z" fill="#5D5360"/>
<path d="M14.7628 2.75H12.5333C12.2377 2.75 11.9901 2.99757 11.9901 3.29323V11.3002C11.9901 11.4443 12.0473 11.5825 12.1492 11.6843C12.2511 11.7862 12.3893 11.8434 12.5333 11.8434C12.6774 11.8434 12.8156 11.7862 12.9175 11.6843C13.0193 11.5825 13.0766 11.4443 13.0766 11.3002V8.36255C13.5987 8.3596 14.3762 8.35566 14.7628 8.35566C16.3327 8.35566 17.6099 7.09834 17.6099 5.5528C17.6099 4.00726 16.3327 2.75 14.7628 2.75ZM14.7628 7.26912C14.3786 7.26912 13.6121 7.27299 13.089 7.27595C13.0861 6.73967 13.0799 4.39377 13.0783 3.83647H14.7628C15.7171 3.83647 16.5234 4.62249 16.5234 5.5528C16.5234 6.4831 15.7171 7.26912 14.7628 7.26912Z" fill="white"/>
</g>
<defs>
<clipPath id="clip0_929_833">
<rect width="36" height="36" fill="white"/>
</clipPath>
</defs>
</svg>
