<svg width="44" height="44" viewBox="0 0 44 44" fill="none" xmlns="http://www.w3.org/2000/svg">
<path d="M21.9998 3.6665C11.8982 3.6665 3.6665 11.8982 3.6665 21.9998C3.6665 32.1015 11.8982 40.3332 21.9998 40.3332C32.1015 40.3332 40.3332 32.1015 40.3332 21.9998C40.3332 11.8982 32.1015 3.6665 21.9998 3.6665ZM30.7632 17.7832L20.3682 28.1782C20.1115 28.4348 19.7632 28.5815 19.3965 28.5815C19.0298 28.5815 18.6815 28.4348 18.4248 28.1782L13.2365 22.9898C12.7048 22.4582 12.7048 21.5782 13.2365 21.0465C13.7682 20.5148 14.6482 20.5148 15.1798 21.0465L19.3965 25.2632L28.8198 15.8398C29.3515 15.3082 30.2315 15.3082 30.7632 15.8398C31.2948 16.3715 31.2948 17.2332 30.7632 17.7832Z" fill="#00B150"/>
</svg>
