<svg width="18" height="18" viewBox="0 0 18 18" fill="none" xmlns="http://www.w3.org/2000/svg">
<path d="M8.25 15C8.0375 15 7.85937 14.9281 7.71562 14.7844C7.57187 14.6406 7.5 14.4625 7.5 14.25V9.75L3.15 4.2C2.9625 3.95 2.93437 3.6875 3.06562 3.4125C3.19687 3.1375 3.425 3 3.75 3H14.25C14.575 3 14.8031 3.1375 14.9344 3.4125C15.0656 3.6875 15.0375 3.95 14.85 4.2L10.5 9.75V14.25C10.5 14.4625 10.4281 14.6406 10.2844 14.7844C10.1406 14.9281 9.9625 15 9.75 15H8.25ZM9 9.225L12.7125 4.5H5.2875L9 9.225Z" fill="#00B150"/>
</svg>
