<svg width="32" height="12" viewBox="0 0 32 12" fill="none" xmlns="http://www.w3.org/2000/svg">
<g clip-path="url(#clip0_296_1255)">
<path d="M16.5496 4.1287C16.5314 5.5585 17.8325 6.35634 18.8126 6.83074C19.8196 7.31744 20.1579 7.62957 20.1539 8.06487C20.1464 8.73098 19.3506 9.02498 18.606 9.03641C17.3069 9.05639 16.5515 8.68802 15.951 8.40941L15.483 10.5845C16.0855 10.8603 17.2011 11.1008 18.358 11.1113C21.0736 11.1113 22.8503 9.77986 22.8599 7.71549C22.8705 5.09552 19.2114 4.9505 19.2364 3.77945C19.245 3.42435 19.5861 3.04543 20.3336 2.94908C20.7036 2.90041 21.725 2.86316 22.883 3.39282L23.3375 1.28835C22.7148 1.06312 21.9144 0.847463 20.9179 0.847463C18.3619 0.847463 16.5641 2.19706 16.5496 4.1287ZM27.7048 1.02873C27.2089 1.02873 26.791 1.31603 26.6045 1.75692L22.7254 10.9568H25.439L25.979 9.47443H29.295L29.6082 10.9568H32L29.9129 1.02873H27.7048ZM28.0844 3.71066L28.8675 7.43874H26.7227L28.0844 3.71066ZM13.2595 1.02886L11.1205 10.9566H13.7064L15.8444 1.02861L13.2595 1.02886ZM9.43412 1.02886L6.74263 7.78614L5.65387 2.04049C5.52612 1.3991 5.02163 1.02873 4.46138 1.02873H0.061625L0 1.31703C0.90325 1.51171 1.9295 1.8257 2.55125 2.16167C2.93175 2.3669 3.04025 2.54631 3.16525 3.034L5.22738 10.9568H7.96L12.1495 1.02873L9.43412 1.02886Z" fill="url(#paint0_linear_296_1255)"/>
</g>
<defs>
<linearGradient id="paint0_linear_296_1255" x1="1471.17" y1="31.7006" x2="1500.68" y2="-1022.42" gradientUnits="userSpaceOnUse">
<stop stop-color="#222357"/>
<stop offset="1" stop-color="#254AA5"/>
</linearGradient>
<clipPath id="clip0_296_1255">
<rect width="32" height="10.3051" fill="white" transform="translate(0 0.847412)"/>
</clipPath>
</defs>
</svg>
