<svg width="77" height="85" viewBox="0 0 77 85" fill="none" xmlns="http://www.w3.org/2000/svg">
<g filter="url(#filter0_d_115_615)">
<path d="M33.0508 21.0203C31.1904 21.2465 29.7479 21.6645 28.3188 22.391C21.8343 25.7012 19.165 33.6922 22.3331 40.2783C22.5556 40.7306 22.933 41.4023 23.169 41.7587C23.6678 42.5125 34.0484 56 34.1293 56C34.2102 56 44.5908 42.5125 45.0896 41.7655C47.9746 37.4068 47.9679 31.4237 45.0829 27.0444C42.973 23.8439 39.9195 21.8221 36.1852 21.1505C35.6055 21.0477 33.5496 20.9586 33.0508 21.0203ZM35.3426 25.2625C37.3378 25.5367 39.0904 26.4276 40.5397 27.8942C43.2157 30.615 43.9504 34.5557 42.4473 38.1127C41.5777 40.1687 39.7914 41.9848 37.7692 42.8689C34.891 44.1299 31.6959 43.8489 29.1075 42.1082C28.211 41.5051 27.1527 40.4291 26.5595 39.5176C24.5441 36.413 24.5441 32.4106 26.5595 29.306C27.1527 28.3945 28.211 27.3186 29.1075 26.7155C30.9747 25.4681 33.1452 24.961 35.3426 25.2625Z" fill="#FEFEFE"/>
<circle cx="33.7273" cy="34.5228" r="9.54545" fill="#FEFEFE"/>
<circle cx="34" cy="34" r="10" fill="#00B150"/>
<path d="M33.9385 28.1347C33.7077 28.3508 30 35.489 30 35.7211C30 35.8332 30.0846 36.0172 30.1923 36.1212C30.3769 36.3213 30.4 36.3213 31.7308 36.3213H33.0769V38.3619V40.4106L33.2692 40.6026C33.4923 40.8427 33.8385 40.8667 34.0615 40.6587C34.2923 40.4506 38 33.3124 38 33.0803C38 32.9683 37.9154 32.7842 37.8077 32.6802C37.6231 32.4801 37.6 32.4801 36.2692 32.4801H34.9231V30.4395V28.3908L34.7308 28.1988C34.5077 27.9587 34.1615 27.9347 33.9385 28.1347Z" fill="#FEFEFE"/>
</g>
<defs>
<filter id="filter0_d_115_615" x="0" y="0" width="76.25" height="85" filterUnits="userSpaceOnUse" color-interpolation-filters="sRGB">
<feFlood flood-opacity="0" result="BackgroundImageFix"/>
<feColorMatrix in="SourceAlpha" type="matrix" values="0 0 0 0 0 0 0 0 0 0 0 0 0 0 0 0 0 0 127 0" result="hardAlpha"/>
<feOffset dx="4" dy="4"/>
<feGaussianBlur stdDeviation="12.5"/>
<feComposite in2="hardAlpha" operator="out"/>
<feColorMatrix type="matrix" values="0 0 0 0 0 0 0 0 0 0 0 0 0 0 0 0 0 0 0.15 0"/>
<feBlend mode="normal" in2="BackgroundImageFix" result="effect1_dropShadow_115_615"/>
<feBlend mode="normal" in="SourceGraphic" in2="effect1_dropShadow_115_615" result="shape"/>
</filter>
</defs>
</svg>
