<svg width="77" height="85" viewBox="0 0 77 85" fill="none" xmlns="http://www.w3.org/2000/svg">
<g filter="url(#filter0_d_113_599)">
<path d="M33.0508 21.0203C31.1904 21.2465 29.7479 21.6645 28.3188 22.391C21.8343 25.7012 19.165 33.6922 22.3331 40.2783C22.5556 40.7306 22.933 41.4023 23.169 41.7587C23.6678 42.5125 34.0484 56 34.1293 56C34.2102 56 44.5908 42.5125 45.0896 41.7655C47.9746 37.4068 47.9679 31.4237 45.0829 27.0444C42.973 23.8439 39.9195 21.8221 36.1852 21.1505C35.6055 21.0477 33.5496 20.9586 33.0508 21.0203ZM35.3426 25.2625C37.3378 25.5367 39.0904 26.4276 40.5397 27.8942C43.2157 30.615 43.9504 34.5557 42.4473 38.1127C41.5777 40.1687 39.7914 41.9848 37.7692 42.8689C34.891 44.1299 31.6959 43.8489 29.1075 42.1082C28.211 41.5051 27.1527 40.4291 26.5595 39.5176C24.5441 36.413 24.5441 32.4106 26.5595 29.306C27.1527 28.3945 28.211 27.3186 29.1075 26.7155C30.9747 25.4681 33.1452 24.961 35.3426 25.2625Z" fill="#FEFEFE"/>
<circle cx="33.7273" cy="34.5228" r="9.54545" fill="#FEFEFE"/>
<path d="M32.7372 24.314C28.8041 25.0168 25.6791 27.8576 24.579 31.7376C23.0214 37.2014 26.1853 42.9423 31.6176 44.5359C36.9915 46.1196 42.638 42.9027 44.2054 37.3795C45.9091 31.3813 41.9468 25.2049 35.7843 24.2745C34.879 24.1359 33.6523 24.1557 32.7372 24.314ZM36.641 27.234C38.4518 27.5804 39.8537 29.0552 40.1555 30.9359C40.5254 33.2223 38.9288 35.4989 36.641 35.9443C36.349 35.9938 35.4047 36.0433 34.5285 36.0433H32.9319V39.0127V41.9822H31.4716H30.0113V34.5586V27.135H33.0682C34.7427 27.135 36.349 27.1845 36.641 27.234Z" fill="#00A8FF"/>
<path d="M32.9319 31.5888V33.0735H34.5383C35.9596 33.0735 36.1933 33.0537 36.534 32.8755C36.9721 32.6479 37.3128 32.0837 37.3128 31.5888C37.3128 31.0939 36.9721 30.5297 36.534 30.302C36.1933 30.1239 35.9596 30.1041 34.5383 30.1041H32.9319V31.5888Z" fill="#00A8FF"/>
</g>
<defs>
<filter id="filter0_d_113_599" x="0" y="0" width="76.25" height="85" filterUnits="userSpaceOnUse" color-interpolation-filters="sRGB">
<feFlood flood-opacity="0" result="BackgroundImageFix"/>
<feColorMatrix in="SourceAlpha" type="matrix" values="0 0 0 0 0 0 0 0 0 0 0 0 0 0 0 0 0 0 127 0" result="hardAlpha"/>
<feOffset dx="4" dy="4"/>
<feGaussianBlur stdDeviation="12.5"/>
<feComposite in2="hardAlpha" operator="out"/>
<feColorMatrix type="matrix" values="0 0 0 0 0 0 0 0 0 0 0 0 0 0 0 0 0 0 0.15 0"/>
<feBlend mode="normal" in2="BackgroundImageFix" result="effect1_dropShadow_113_599"/>
<feBlend mode="normal" in="SourceGraphic" in2="effect1_dropShadow_113_599" result="shape"/>
</filter>
</defs>
</svg>
